<svg width="253" height="182" viewBox="0 0 253 182" fill="none" xmlns="http://www.w3.org/2000/svg">
  <path
    d="M187.469 11.792C187.499 11.8191 187.522 11.8518 187.539 11.8882C187.555 11.9245 187.564 11.9638 187.565 12.0036C187.566 12.0435 187.559 12.0831 187.544 12.1202C187.53 12.1573 187.508 12.1912 187.48 12.2197L182.918 16.7579C182.857 16.818 182.775 16.8526 182.69 16.8545C182.604 16.8565 182.521 16.8256 182.457 16.7683C168.429 3.898 148.029 3.72412 134.039 16.7579C133.976 16.8166 133.893 16.8488 133.808 16.8475C133.722 16.8462 133.641 16.8115 133.582 16.7509L128.932 12.0875C128.916 12.0714 128.903 12.0522 128.894 12.031C128.885 12.0098 128.881 11.9871 128.881 11.9641C128.881 11.9411 128.885 11.9184 128.894 11.8972C128.903 11.876 128.916 11.8568 128.932 11.8406C136.508 4.57611 146.299 0.298768 156.8 0.0170887C168.483 -0.293569 178.705 3.63139 187.469 11.792Z"
    fill="#0F2040" />
  <path
    d="M176.329 23.5111L171.516 28.2336C171.483 28.2663 171.438 28.2846 171.391 28.2846C171.344 28.2846 171.299 28.2663 171.265 28.2336C163.724 21.3099 152.605 21.4942 145.183 28.2614C145.138 28.3032 145.078 28.3259 145.016 28.3246C144.955 28.3233 144.895 28.2981 144.851 28.2545L140.09 23.5007C140.077 23.4883 140.067 23.4733 140.06 23.4566C140.053 23.4399 140.049 23.4219 140.05 23.4037C140.05 23.3854 140.054 23.3674 140.062 23.3506C140.069 23.3338 140.08 23.3186 140.094 23.306C150.421 13.5481 165.883 13.7011 176.322 23.2399C176.341 23.2576 176.356 23.2788 176.367 23.3023C176.377 23.3257 176.383 23.3508 176.384 23.3762C176.384 23.4015 176.38 23.4266 176.371 23.4497C176.361 23.4729 176.347 23.4938 176.329 23.5111Z"
    fill="#0F2040" />
  <path
    d="M247.042 120.993H226.551L212.917 96.7757C212.91 96.7621 212.9 96.7508 212.887 96.7428C212.874 96.7348 212.859 96.7304 212.843 96.73C212.828 96.7297 212.812 96.7334 212.798 96.7408C212.784 96.7482 212.772 96.759 212.764 96.7722L197.428 120.993H174.669L172.43 113.77C172.4 113.672 172.341 113.587 172.261 113.526C172.181 113.464 172.086 113.431 171.987 113.429H143.735C143.692 113.429 143.649 113.444 143.613 113.471C143.577 113.498 143.551 113.536 143.537 113.579L141.025 121L121.828 120.993L124.203 114.466C124.243 114.357 124.221 114.342 124.137 114.421C119.268 119.028 113.161 120.659 106.569 120.993H55.9074L53.5915 113.596C53.5766 113.548 53.5476 113.506 53.5087 113.476C53.4698 113.446 53.423 113.43 53.3752 113.429H25.0154C24.9446 113.429 24.8751 113.453 24.8168 113.498C24.7585 113.542 24.7145 113.605 24.691 113.676L22.2495 120.993H3V120.711C3.08836 120.663 3.1523 120.585 3.19183 120.478C12.4672 95.9086 21.7287 71.3817 30.9762 46.8976C31.0019 46.8282 31.0481 46.7683 31.1086 46.726C31.1691 46.6837 31.2409 46.6611 31.3145 46.6612H47.2506C47.2795 46.662 47.3075 46.6714 47.3311 46.6881C47.3547 46.7048 47.3728 46.7281 47.3831 46.7551L71.3831 112.195C71.4598 112.406 71.4982 112.399 71.4982 112.174L71.4703 46.8837C71.4703 46.8373 71.4885 46.7927 71.5212 46.7595C71.5538 46.7264 71.5981 46.7073 71.6447 46.7064C84.4103 46.616 94.9285 46.6148 103.199 46.7029C116.694 46.8524 126.816 54.3048 125.836 68.6321C125.382 75.2498 121.165 80.2401 114.671 81.8224C114.603 81.8392 114.541 81.8692 114.499 81.9057C114.457 81.9422 114.439 81.9823 114.448 82.0171C114.462 82.082 114.544 82.1237 114.695 82.1423C124.618 83.3525 130.115 90.2449 129.372 100.166C129.328 100.741 129.408 100.759 129.613 100.218L149.752 46.915C149.78 46.8384 149.832 46.7723 149.899 46.7257C149.967 46.679 150.047 46.6541 150.129 46.6542L165.96 46.6751C166.011 46.675 166.061 46.6906 166.103 46.7199C166.145 46.7491 166.176 46.7906 166.194 46.8385L187.972 106.207C188.03 106.369 188.107 106.377 188.202 106.231L203.374 82.8169C203.414 82.7554 203.436 82.6843 203.437 82.6117C203.438 82.5391 203.419 82.468 203.381 82.4066L181.75 46.8316C181.68 46.7203 181.711 46.6647 181.844 46.6647L201.634 46.6612C201.687 46.6612 201.739 46.675 201.785 46.7013C201.831 46.7275 201.869 46.7653 201.896 46.8107L213.653 67.1055C213.664 67.1259 213.681 67.143 213.701 67.155C213.721 67.167 213.744 67.1735 213.767 67.1739C213.791 67.1742 213.814 67.1684 213.834 67.157C213.854 67.1456 213.871 67.129 213.883 67.109L226.544 46.8038C226.573 46.7579 226.613 46.7201 226.661 46.694C226.709 46.6678 226.762 46.6541 226.816 46.6542H245.163C245.346 46.6542 245.389 46.7319 245.292 46.8872L222.906 81.9371C222.865 82.0028 222.842 82.0787 222.841 82.1562C222.841 82.2337 222.862 82.3097 222.903 82.3753C225.163 85.971 247.182 120.642 247.042 120.993ZM89.0736 75.8688C89.0736 75.9159 89.0923 75.961 89.1257 75.9943C89.159 76.0275 89.2043 76.0462 89.2514 76.0462C93.0323 76.0439 96.855 76.045 100.72 76.0497C102.503 76.0497 103.728 75.9198 104.396 75.6602C107.545 74.4396 108.393 70.0127 108.177 67.0116C107.81 61.9379 104.619 60.1087 100.025 60.1331C96.4074 60.1563 92.787 60.1424 89.1642 60.0913C89.1438 60.0909 89.1235 60.0945 89.1044 60.102C89.0854 60.1095 89.0681 60.1207 89.0535 60.1349C89.0388 60.1492 89.0272 60.1662 89.0193 60.185C89.0114 60.2038 89.0073 60.224 89.0073 60.2444L89.0736 75.8688ZM147.921 99.9854C147.915 100.002 147.914 100.019 147.916 100.036C147.919 100.054 147.926 100.07 147.936 100.084C147.946 100.098 147.96 100.109 147.975 100.117C147.991 100.125 148.008 100.128 148.025 100.128L168.136 100.302C168.153 100.302 168.17 100.298 168.186 100.291C168.201 100.283 168.214 100.272 168.224 100.259C168.234 100.245 168.241 100.229 168.244 100.213C168.247 100.196 168.246 100.179 168.241 100.163L158.465 68.0479C158.458 68.0261 158.445 68.0069 158.426 67.9932C158.408 67.9795 158.386 67.9718 158.363 67.9715C158.34 67.9711 158.318 67.9779 158.299 67.991C158.28 68.0042 158.266 68.0228 158.259 68.0444L147.921 99.9854ZM29.1485 99.9819C29.1431 99.9985 29.1416 100.016 29.1442 100.033C29.1469 100.051 29.1535 100.067 29.1637 100.081C29.1739 100.096 29.1873 100.107 29.2029 100.115C29.2184 100.123 29.2356 100.128 29.2532 100.128L49.3433 100.302C49.3607 100.302 49.3779 100.298 49.3936 100.29C49.4092 100.283 49.4228 100.272 49.4333 100.258C49.4438 100.244 49.4509 100.228 49.4541 100.211C49.4572 100.194 49.4563 100.176 49.4514 100.159L39.6854 68.0166C39.6782 67.9941 39.664 67.9744 39.6449 67.9605C39.6258 67.9465 39.6027 67.939 39.579 67.939C39.5553 67.939 39.5322 67.9465 39.5131 67.9605C39.494 67.9744 39.4798 67.9941 39.4726 68.0166L29.1485 99.9819ZM111.208 95.9585C110.506 92.3836 107.462 89.4764 103.862 89.4624C99.0163 89.4393 94.1693 89.3941 89.3212 89.3268C89.2766 89.3259 89.2323 89.3338 89.1909 89.35C89.1495 89.3661 89.1117 89.3903 89.0799 89.4211C89.048 89.4519 89.0228 89.4886 89.0055 89.5291C88.9882 89.5697 88.9794 89.6132 88.9794 89.6572L88.9864 107.333C88.9873 107.38 89.006 107.424 89.0387 107.457C89.0713 107.489 89.1151 107.507 89.1608 107.507C93.6671 107.514 98.178 107.52 102.694 107.525C104.312 107.527 105.558 107.374 106.433 107.066C111.159 105.396 112.093 100.448 111.208 95.9585Z"
    fill="#0F2040" />
  <path
    d="M5.088 168V132.96H12.768L30.576 163.776H32.112L31.152 164.64V132.96H35.664V168H27.888L10.08 137.184H8.544L9.504 136.32V168H5.088ZM57.2084 168.864C54.9684 168.864 53.0004 168.48 51.3044 167.712C49.6084 166.944 48.1684 165.936 46.9844 164.688C45.8324 163.408 44.9524 161.984 44.3444 160.416C43.7684 158.848 43.4804 157.248 43.4804 155.616V154.752C43.4804 153.12 43.7844 151.52 44.3924 149.952C45.0004 148.352 45.8964 146.928 47.0804 145.68C48.2644 144.4 49.7044 143.392 51.4004 142.656C53.0964 141.888 55.0324 141.504 57.2084 141.504C59.3844 141.504 61.3204 141.888 63.0164 142.656C64.7124 143.392 66.1524 144.4 67.3364 145.68C68.5204 146.928 69.4164 148.352 70.0244 149.952C70.6324 151.52 70.9364 153.12 70.9364 154.752V155.616C70.9364 157.248 70.6324 158.848 70.0244 160.416C69.4484 161.984 68.5684 163.408 67.3844 164.688C66.2324 165.936 64.8084 166.944 63.1124 167.712C61.4164 168.48 59.4484 168.864 57.2084 168.864ZM57.2084 164.736C59.1284 164.736 60.7604 164.32 62.1044 163.488C63.4804 162.624 64.5204 161.472 65.2244 160.032C65.9604 158.592 66.3284 156.976 66.3284 155.184C66.3284 153.36 65.9604 151.728 65.2244 150.288C64.4884 148.848 63.4324 147.712 62.0564 146.88C60.7124 146.048 59.0964 145.632 57.2084 145.632C55.3524 145.632 53.7364 146.048 52.3604 146.88C50.9844 147.712 49.9284 148.848 49.1924 150.288C48.4564 151.728 48.0884 153.36 48.0884 155.184C48.0884 156.976 48.4404 158.592 49.1444 160.032C49.8804 161.472 50.9204 162.624 52.2644 163.488C53.6404 164.32 55.2884 164.736 57.2084 164.736ZM88.7919 168.864C86.9679 168.864 85.2879 168.528 83.7519 167.856C82.2159 167.184 80.8719 166.24 79.7199 165.024C78.5999 163.808 77.7199 162.4 77.0799 160.8C76.4719 159.2 76.1679 157.472 76.1679 155.616V154.752C76.1679 152.928 76.4719 151.216 77.0799 149.616C77.6879 148.016 78.5359 146.608 79.6239 145.392C80.7439 144.176 82.0559 143.232 83.5599 142.56C85.0959 141.856 86.7919 141.504 88.6479 141.504C90.5999 141.504 92.3759 141.92 93.9759 142.752C95.5759 143.552 96.8879 144.816 97.9119 146.544C98.9359 148.272 99.5119 150.512 99.6399 153.264L97.7199 150.192V132.96H102.328V168H98.6799V156.624H100.024C99.8959 159.536 99.2879 161.904 98.1999 163.728C97.1119 165.52 95.7359 166.832 94.0719 167.664C92.4399 168.464 90.6799 168.864 88.7919 168.864ZM89.4159 164.832C90.9839 164.832 92.4079 164.48 93.6879 163.776C94.9679 163.072 95.9919 162.064 96.7599 160.752C97.5279 159.408 97.9119 157.84 97.9119 156.048V153.84C97.9119 152.08 97.5119 150.592 96.7119 149.376C95.9439 148.128 94.9039 147.184 93.5919 146.544C92.3119 145.872 90.9039 145.536 89.3679 145.536C87.6719 145.536 86.1679 145.936 84.8559 146.736C83.5759 147.536 82.5679 148.656 81.8319 150.096C81.1279 151.536 80.7759 153.232 80.7759 155.184C80.7759 157.136 81.1439 158.848 81.8799 160.32C82.6159 161.76 83.6399 162.88 84.9519 163.68C86.2639 164.448 87.7519 164.832 89.4159 164.832ZM122.328 168.864C120.088 168.864 118.152 168.48 116.52 167.712C114.888 166.944 113.56 165.936 112.536 164.688C111.512 163.408 110.744 161.984 110.232 160.416C109.752 158.848 109.512 157.248 109.512 155.616V154.752C109.512 153.088 109.752 151.472 110.232 149.904C110.744 148.336 111.512 146.928 112.536 145.68C113.56 144.4 114.856 143.392 116.424 142.656C118.024 141.888 119.896 141.504 122.04 141.504C124.824 141.504 127.112 142.112 128.904 143.328C130.728 144.512 132.072 146.048 132.936 147.936C133.832 149.824 134.28 151.84 134.28 153.984V156.048H111.528V152.592H130.92L129.864 154.464C129.864 152.64 129.576 151.072 129 149.76C128.424 148.416 127.56 147.376 126.408 146.64C125.256 145.904 123.8 145.536 122.04 145.536C120.216 145.536 118.696 145.952 117.48 146.784C116.296 147.616 115.4 148.752 114.792 150.192C114.216 151.632 113.928 153.296 113.928 155.184C113.928 157.008 114.216 158.656 114.792 160.128C115.4 161.568 116.328 162.72 117.576 163.584C118.824 164.416 120.408 164.832 122.328 164.832C124.344 164.832 125.976 164.384 127.224 163.488C128.504 162.592 129.272 161.552 129.528 160.368H133.848C133.496 162.128 132.792 163.648 131.736 164.928C130.68 166.208 129.352 167.184 127.752 167.856C126.152 168.528 124.344 168.864 122.328 168.864ZM164.292 168.864C161.38 168.864 158.9 168.384 156.852 167.424C154.804 166.464 153.236 165.136 152.148 163.44C151.06 161.744 150.516 159.824 150.516 157.68H155.22C155.22 158.736 155.492 159.792 156.036 160.848C156.612 161.904 157.556 162.784 158.868 163.488C160.212 164.192 162.02 164.544 164.292 164.544C166.404 164.544 168.132 164.24 169.476 163.632C170.82 162.992 171.812 162.176 172.452 161.184C173.092 160.16 173.412 159.056 173.412 157.872C173.412 156.432 172.788 155.248 171.54 154.32C170.292 153.36 168.468 152.768 166.068 152.544L162.18 152.208C159.076 151.952 156.596 150.992 154.74 149.328C152.884 147.664 151.956 145.472 151.956 142.752C151.956 140.608 152.468 138.736 153.492 137.136C154.548 135.536 156.004 134.288 157.86 133.392C159.716 132.464 161.876 132 164.34 132C166.772 132 168.916 132.448 170.772 133.344C172.628 134.24 174.068 135.504 175.092 137.136C176.148 138.736 176.676 140.656 176.676 142.896H171.972C171.972 141.776 171.7 140.72 171.156 139.728C170.644 138.736 169.828 137.92 168.708 137.28C167.588 136.64 166.132 136.32 164.34 136.32C162.612 136.32 161.172 136.624 160.02 137.232C158.9 137.84 158.052 138.64 157.476 139.632C156.932 140.592 156.66 141.632 156.66 142.752C156.66 144.032 157.156 145.168 158.148 146.16C159.14 147.152 160.612 147.728 162.564 147.888L166.452 148.224C168.852 148.416 170.916 148.928 172.644 149.76C174.404 150.56 175.748 151.648 176.676 153.024C177.636 154.368 178.116 155.984 178.116 157.872C178.116 160.016 177.54 161.92 176.388 163.584C175.236 165.248 173.62 166.544 171.54 167.472C169.46 168.4 167.044 168.864 164.292 168.864ZM190.004 168.192V163.872H198.74C200.852 163.872 202.724 163.536 204.356 162.864C206.02 162.16 207.428 161.2 208.58 159.984C209.764 158.768 210.66 157.344 211.268 155.712C211.876 154.08 212.18 152.32 212.18 150.432C212.18 148.448 211.876 146.656 211.268 145.056C210.66 143.424 209.764 142.016 208.58 140.832C207.428 139.616 206.02 138.688 204.356 138.048C202.724 137.408 200.852 137.088 198.74 137.088H190.004V132.768H198.26C201.428 132.768 204.18 133.264 206.516 134.256C208.852 135.216 210.788 136.528 212.324 138.192C213.892 139.824 215.06 141.664 215.828 143.712C216.596 145.728 216.98 147.792 216.98 149.904V150.96C216.98 153.008 216.596 155.056 215.828 157.104C215.06 159.152 213.892 161.008 212.324 162.672C210.788 164.336 208.852 165.68 206.516 166.704C204.18 167.696 201.428 168.192 198.26 168.192H190.004ZM186.26 168.192V132.768H190.964V168.192H186.26ZM246.559 168L232.303 151.632H227.167L243.439 132.96H248.815L234.031 149.856L233.599 146.544L252.415 168H246.559ZM224.479 168V132.96H229.183V168H224.479Z"
    fill="#0F2040" />
</svg>